<?xml version="1.0" encoding="UTF-8" standalone="no"?>

<svg width="400" height="480" version="1.1" >

  <!-- rect -->
  <rect x="0" y="0" width="400" height="480" style="fill:black;stroke-width:1; stroke:rgb(0,0,0)"/>

  <!-- 10 circle -->
  <circle cx="200" cy="280" r="180" stroke="white" stroke-width="1" fill="black"/>
  <circle cx="200" cy="280" r="162" stroke="white" stroke-width="1" fill="black"/>
  <circle cx="200" cy="280" r="144" stroke="white" stroke-width="1" fill="black"/>
  <circle cx="200" cy="280" r="126" stroke="white" stroke-width="1" fill="black"/>
  <circle cx="200" cy="280" r="108" stroke="white" stroke-width="1" fill="black"/>
  <circle cx="200" cy="280" r="90" stroke="white" stroke-width="1" fill="black"/>
  <circle cx="200" cy="280" r="72" stroke="white" stroke-width="1" fill="black"/>
  <circle cx="200" cy="280" r="54" stroke="white" stroke-width="1" fill="black"/>
  <circle cx="200" cy="280" r="36" stroke="white" stroke-width="1" fill="black"/>
  <circle cx="200" cy="280" r="18" stroke="white" stroke-width="1" fill="black"/>

  <!-- 6 line -->
  <line x1="0" y1="280" x2="400" y2="280" style="stroke:white;stroke-width:1"/>
  <line x1="200" y1="80" x2="200" y2="480" style="stroke:white;stroke-width:1"/>
  <line x1="373.2" y1="180" x2="26.8" y2="380" style="stroke:white;stroke-width:1"/>
  <line x1="26.8" y1="180" x2="373.2" y2="380" style="stroke:white;stroke-width:1"/>
  <line x1="100" y1="106.8" x2="300" y2="453.2" style="stroke:white;stroke-width:1"/>
  <line x1="300" y1="106.8" x2="100" y2="453.2" style="stroke:white;stroke-width:1"/>

  <!-- 角度 -->
  <text x="382" y="280" fill="white" style="font-size: 12px;font-family: 'Arial';">0°</text>
  <text x="356" y="182" fill="white" style="font-size: 12px;font-family: 'Arial';">30°</text>
  <text x="275" y="116" fill="white" style="font-size: 12px;font-family: 'Arial';">60°</text>
  <text x="175" y="90" fill="white" style="font-size: 12px;font-family: 'Arial';">90°</text>
  <text x="75" y="116" fill="white" style="font-size: 12px;font-family: 'Arial';">120°</text>
  <text x="12" y="202" fill="white" style="font-size: 12px;font-family: 'Arial';">150°</text>
  <text x="0" y="295" fill="white" style="font-size: 12px;font-family: 'Arial';">180°</text>
  <text x="14" y="392" fill="white" style="font-size: 12px;font-family: 'Arial';">210°</text>
  <text x="100" y="465" fill="white" style="font-size: 12px;font-family: 'Arial';">240°</text>
  <text x="203" y="480" fill="white" style="font-size: 12px;font-family: 'Arial';">270°</text>
  <text x="300" y="455" fill="white" style="font-size: 12px;font-family: 'Arial';">300°</text>
  <text x="370" y="375" fill="white" style="font-size: 12px;font-family: 'Arial';">330°</text>

  <!-- u -->
  <text x="0" y="20" fill="white" style="font-size: 15;font-family: 'Arial';">Ua</text>
  <text x="0" y="40" fill="white" style="font-size: 15;font-family: 'Arial';">Ub</text>
  <text x="0" y="60" fill="white" style="font-size: 15;font-family: 'Arial';">Uc</text>
  <!-- i -->
  <text x="75" y="20" fill="white" style="font-size: 15;font-family: 'Arial';">Ia</text>
  <text x="75" y="40" fill="white" style="font-size: 15;font-family: 'Arial';">Ib</text>
  <text x="75" y="60" fill="white" style="font-size: 15;font-family: 'Arial';">Ic</text>

</svg>
